<svg xmlns="http://www.w3.org/2000/svg" xmlns:xlink="http://www.w3.org/1999/xlink" viewBox="0 0 2085 375">
  <defs>
    <style>
      .cls-1 {
        fill: #1840ea;
      }

      .cls-2 {
        isolation: isolate;
      }

      .cls-3 {
        fill: #589366;
      }

      .cls-4 {
        fill: #30635c;
      }

      .cls-5 {
        fill: #71bc86;
      }

      .cls-6 {
        fill: #effeff;
      }

      .cls-15, .cls-7 {
        fill: #fff;
      }

      .cls-7 {
        opacity: 0.5;
      }

      .cls-8 {
        fill: #52c1b3;
      }

      .cls-9 {
        fill: #0f33a8;
      }

      .cls-10 {
        fill: #52dbc4;
      }

      .cls-11 {
        fill: #f76078;
      }

      .cls-12 {
        fill: #b9ebef;
      }

      .cls-13 {
        fill: #83dfe2;
      }

      .cls-14 {
        fill: #5ed1ce;
      }

      .cls-16 {
        fill: #d85061;
      }

      .cls-17 {
        fill: #664631;
      }

      .cls-18, .cls-30 {
        fill: #e0a327;
      }

      .cls-19 {
        fill: #e2883d;
      }

      .cls-20, .cls-23, .cls-27 {
        opacity: 0.1;
      }

      .cls-20 {
        mix-blend-mode: multiply;
      }

      .cls-21 {
        clip-path: url(#clip-path);
      }

      .cls-22, .cls-26, .cls-32 {
        fill: none;
      }

      .cls-22, .cls-30 {
        stroke: #000;
      }

      .cls-22, .cls-26, .cls-30, .cls-32 {
        stroke-miterlimit: 10;
      }

      .cls-24 {
        clip-path: url(#clip-path-2);
      }

      .cls-25 {
        opacity: 0.3;
      }

      .cls-26 {
        stroke: #fffdfd;
      }

      .cls-27 {
        fill: #0c0c0c;
      }

      .cls-28 {
        fill: #fffdfd;
      }

      .cls-29 {
        fill: #d3843d;
      }

      .cls-30 {
        stroke-opacity: 0.05;
        stroke-width: 0.3px;
      }

      .cls-31 {
        mix-blend-mode: darken;
        fill: url(#radial-gradient);
      }

      .cls-32 {
        stroke: #fff;
        stroke-width: 4px;
      }
    </style>
    <clipPath id="clip-path">
      <rect id="_Clipping_Path_" data-name="&lt;Clipping Path&gt;" x="133.32" y="-20.44" width="250.83" height="415.06" transform="translate(49.25 428.06) rotate(-84.87)"/>
    </clipPath>
    <clipPath id="clip-path-2">
      <rect id="_Clipping_Path_2" data-name="&lt;Clipping Path&gt;" class="cls-1" x="133.32" y="-25.44" width="250.83" height="415.06" transform="translate(54.23 423.5) rotate(-84.87)"/>
    </clipPath>
    <radialGradient id="radial-gradient" cx="1908.77" cy="209.54" r="4.95" gradientUnits="userSpaceOnUse">
      <stop offset="0.49" stop-opacity="0.6"/>
      <stop offset="1" stop-color="#fff"/>
    </radialGradient>
  </defs>
  <title>mvp-timeline</title>
  <g class="cls-2">
    <g id="Layer_1" data-name="Layer 1">
      <g>
        <g>
          <path class="cls-3" d="M746.5,290.82a24.57,24.57,0,0,1-21,27.52c-11.72,1.66-24.72-7.34-27.53-21-2.71-13.25,7.64-25.73,21.05-27.52A24.51,24.51,0,0,1,746.5,290.82Z"/>
          <path class="cls-3" d="M772.5,269.82a24.57,24.57,0,0,1-21,27.52c-11.72,1.66-24.72-7.34-27.53-21-2.71-13.25,7.64-25.73,21.05-27.52A24.51,24.51,0,0,1,772.5,269.82Z"/>
          <g>
            <circle class="cls-3" cx="833.8" cy="266.55" r="24.5"/>
            <circle class="cls-3" cx="858.76" cy="247.49" r="24.5"/>
            <circle class="cls-3" cx="873.8" cy="266.45" r="24.5"/>
          </g>
          <g>
            <circle class="cls-4" cx="772.21" cy="278.06" r="24.5"/>
            <circle class="cls-4" cx="794.48" cy="255.92" r="24.5"/>
            <circle class="cls-4" cx="811.86" cy="272.78" r="24.5"/>
          </g>
        </g>
        <g>
          <path class="cls-3" d="M1250.3,287.82a24.56,24.56,0,0,0,21,27.52c11.71,1.66,24.71-7.34,27.52-21,2.71-13.25-7.64-25.73-21-27.52A24.5,24.5,0,0,0,1250.3,287.82Z"/>
          <path class="cls-3" d="M1223.3,264.82a24.56,24.56,0,0,0,21,27.52c11.71,1.66,24.71-7.34,27.52-21,2.71-13.25-7.64-25.73-21-27.52A24.5,24.5,0,0,0,1223.3,264.82Z"/>
          <g>
            <circle class="cls-3" cx="1161.99" cy="261.55" r="24.5"/>
            <circle class="cls-3" cx="1137.04" cy="242.49" r="24.5"/>
            <circle class="cls-3" cx="1121.99" cy="261.45" r="24.5"/>
          </g>
          <g>
            <circle class="cls-4" cx="1223.58" cy="273.06" r="24.5"/>
            <circle class="cls-4" cx="1201.31" cy="250.92" r="24.5"/>
            <circle class="cls-4" cx="1183.93" cy="267.78" r="24.5"/>
          </g>
        </g>
        <ellipse class="cls-5" cx="996.23" cy="306.5" rx="293.5" ry="37.5"/>
        <polygon class="cls-6" points="1102.23 297 890.23 297 890.23 165 996.23 85 1102.23 165 1102.23 297"/>
        <path class="cls-7" d="M1180.12,107.58a36.66,36.66,0,0,0-57.25-38.42,36.67,36.67,0,0,0-63.59,36h-2.41a30.5,30.5,0,0,0-30.36,30.47h0A30.52,30.52,0,0,0,1057,166l110.92-.21a30.5,30.5,0,0,0,30.35-30.48h0A30.5,30.5,0,0,0,1180.12,107.58Z"/>
        <path class="cls-7" d="M1960.12,107.58a36.66,36.66,0,0,0-57.25-38.42,36.67,36.67,0,0,0-63.59,36h-2.41a30.5,30.5,0,0,0-30.36,30.47h0A30.52,30.52,0,0,0,1837,166l110.92-.21a30.5,30.5,0,0,0,30.35-30.48h0A30.5,30.5,0,0,0,1960.12,107.58Z"/>
        <rect class="cls-8" x="890.23" y="150" width="25" height="147"/>
        <rect class="cls-8" x="1077.23" y="150" width="25" height="147"/>
        <rect class="cls-9" x="890.23" y="279" width="212" height="18"/>
        <polygon class="cls-10" points="1117.23 160 1117.23 185 996.23 100 875.23 185 875.23 160 996.23 75 1117.23 160"/>
        <path class="cls-11" d="M1007.23,297V219.5a24.5,24.5,0,0,1,49,0V297Z"/>
        <path class="cls-12" d="M1012.23,219.5c0-11.87,8.95-21.5,20-21.5h0c11,0,20,9.63,20,21.5"/>
        <g>
          <rect class="cls-12" x="936.23" y="178" width="51" height="80"/>
          <path class="cls-13" d="M983.23,182v72h-43V182h43m8-8h-59v88h59V174Z"/>
        </g>
        <rect class="cls-14" x="929.23" y="253" width="65" height="9"/>
        <rect class="cls-13" x="932.23" y="207" width="59" height="8"/>
        <path class="cls-15" d="M1031.86,237.38a2.34,2.34,0,0,1-.91-.18,2.51,2.51,0,0,1-.76-.52,2.17,2.17,0,0,1-.51-.75,2.41,2.41,0,0,1-.18-.93v-3.55a2.34,2.34,0,0,1,.18-.91,2.25,2.25,0,0,1,.51-.77,2.67,2.67,0,0,1,.76-.51,2.34,2.34,0,0,1,.91-.18h1a2,2,0,0,1,.86.17,2.08,2.08,0,0,1,.7.46,2.36,2.36,0,0,1,.47.68,2.66,2.66,0,0,1,.23.86h-1.52a1.21,1.21,0,0,0-.22-.54.66.66,0,0,0-.53-.22h-1a.78.78,0,0,0-.66.31,1.11,1.11,0,0,0-.25.74v.87a2.33,2.33,0,0,1,.9-.18h.93a2.24,2.24,0,0,1,.93.19,2.17,2.17,0,0,1,.75.51,2.54,2.54,0,0,1,.51.76,2.24,2.24,0,0,1,.19.93V235a2.24,2.24,0,0,1-.19.93,2.49,2.49,0,0,1-.51.75,2.34,2.34,0,0,1-.75.52,2.41,2.41,0,0,1-.93.18ZM1031,235a1.15,1.15,0,0,0,.27.71.8.8,0,0,0,.64.28h.91a.82.82,0,0,0,.67-.3,1.16,1.16,0,0,0,.25-.74v-.23a1.15,1.15,0,0,0-.25-.73.82.82,0,0,0-.67-.3h-.91a.8.8,0,0,0-.66.3,1,1,0,0,0-.25.72Z"/>
        <path class="cls-16" d="M1032.73,191a28.5,28.5,0,0,0-28.5,28.5V297h8V219.5a20.5,20.5,0,0,1,41,0V297h8V219.5A28.5,28.5,0,0,0,1032.73,191Z"/>
        <rect class="cls-17" x="830.73" y="241" width="11" height="57"/>
        <rect class="cls-17" x="823.28" y="259.06" width="13" height="5.79" rx="2.9" ry="2.9" transform="translate(428.26 -510.02) rotate(45)"/>
        <path class="cls-4" d="M1128.73,283.5a1.52,1.52,0,0,1-.32.94,1.85,1.85,0,0,1-.39.36,1.33,1.33,0,0,1-.42.18,1.51,1.51,0,0,1-1.65-.68,1.31,1.31,0,0,1-.2-.54v-2.55l.06-2.48c.06-1.65.15-3.3.27-4.94a93.77,93.77,0,0,1,1.19-9.79,91,91,0,0,0,.31,9.78c.13,1.63.29,3.24.48,4.86l.31,2.41.18,1.19.1.59.05.28,0,.12v0h0a1.34,1.34,0,0,0-.2-.53,1.49,1.49,0,0,0-.81-.62,1.47,1.47,0,0,0-.83,0,1.41,1.41,0,0,0-.41.18,1.24,1.24,0,0,0-.39.34,1.42,1.42,0,0,0-.32.9,1.5,1.5,0,0,1,3,0Z"/>
        <circle class="cls-5" cx="835.73" cy="221" r="29.7"/>
        <ellipse class="cls-17" cx="1127.73" cy="281" rx="9" ry="3"/>
        <polygon class="cls-18" points="1134.62 296.83 1120.84 296.83 1119.06 282.17 1136.4 282.17 1134.62 296.83"/>
        <rect class="cls-19" x="1117.73" y="281.5" width="20" height="4.67"/>
        <rect class="cls-18" x="1117.73" y="280.17" width="20" height="4.67"/>
        <path class="cls-4" d="M1129.72,270a1.7,1.7,0,1,1,1.53-2.45A3,3,0,0,1,1129.72,270Z"/>
        <path class="cls-4" d="M1125.56,267c1.55.52,1.66,1.5,1.94,3-1.12.91-1.73,1.57-3.21,1.07s-3.55-2.15-3.83-3.65C1121.58,266.55,1124.09,266.54,1125.56,267Z"/>
      </g>
      <g>
        <g class="cls-20">
          <g>
            <rect id="_Clipping_Path_3" data-name="&lt;Clipping Path&gt;" x="133.32" y="-20.44" width="250.83" height="415.06" transform="translate(49.25 428.06) rotate(-84.87)"/>
            <g class="cls-21">
              <rect class="cls-22" x="61.9" y="-9.75" width="393.68" height="393.68" transform="translate(49.25 428.06) rotate(-84.87)"/>
              <line class="cls-22" x1="48.28" y1="329.89" x2="440.39" y2="365.11"/>
              <line class="cls-22" x1="51.48" y1="294.24" x2="443.59" y2="329.46"/>
              <line class="cls-22" x1="54.68" y1="258.59" x2="446.79" y2="293.81"/>
              <line class="cls-22" x1="57.89" y1="222.95" x2="449.99" y2="258.17"/>
              <line class="cls-22" x1="61.09" y1="187.3" x2="453.19" y2="222.52"/>
              <line class="cls-22" x1="64.29" y1="151.66" x2="456.4" y2="186.88"/>
              <line class="cls-22" x1="67.49" y1="116.01" x2="459.6" y2="151.23"/>
              <line class="cls-22" x1="70.69" y1="80.36" x2="462.8" y2="115.58"/>
              <line class="cls-22" x1="73.9" y1="44.72" x2="466" y2="79.94"/>
              <line class="cls-22" x1="77.1" y1="9.07" x2="469.2" y2="44.29"/>
              <line class="cls-22" x1="436.76" y1="5.44" x2="401.54" y2="397.55"/>
              <line class="cls-22" x1="401.11" y1="2.24" x2="365.89" y2="394.35"/>
              <line class="cls-22" x1="365.47" y1="-0.96" x2="330.25" y2="391.15"/>
              <line class="cls-22" x1="329.82" y1="-4.16" x2="294.6" y2="387.94"/>
              <line class="cls-22" x1="294.18" y1="-7.36" x2="258.95" y2="384.74"/>
              <line class="cls-22" x1="258.53" y1="-10.57" x2="223.31" y2="381.54"/>
              <line class="cls-22" x1="222.88" y1="-13.77" x2="187.66" y2="378.34"/>
              <line class="cls-22" x1="187.24" y1="-16.97" x2="152.02" y2="375.14"/>
              <line class="cls-22" x1="151.59" y1="-20.17" x2="116.37" y2="371.94"/>
              <line class="cls-22" x1="115.95" y1="-23.37" x2="80.72" y2="368.73"/>
            </g>
          </g>
          <path class="cls-23" d="M73.34,321.2,15.09,316C36.93,212,48.43,113.2,41.35,23.57L99.61,28.8C81.67,115.6,74.59,215,73.34,321.2Z"/>
          <path d="M67.74,320.7,9.48,315.47c21.85-104,33.35-202.77,26.27-292.4L94,28.3C76.07,115.1,69,214.51,67.74,320.7Z"/>
          <path class="cls-23" d="M475.53,357.33l-58.26-5.23c21.85-104,33.35-202.77,26.27-292.4l58.25,5.23C483.86,151.73,476.78,251.14,475.53,357.33Z"/>
          <path d="M482.25,357.93,424,352.7c21.84-103.94,33.34-202.77,26.26-292.4l58.26,5.23C490.59,152.33,483.5,251.74,482.25,357.93Z"/>
          <polygon class="cls-22" points="342.09 284.36 153.79 267.44 164.33 150.21 264.85 87.61 352.62 167.12 342.09 284.36"/>
          <rect class="cls-22" x="105.22" y="192.01" width="131.09" height="22.29" transform="translate(-46.86 355.06) rotate(-84.87)"/>
          <rect class="cls-22" x="271.31" y="206.93" width="131.09" height="22.29" transform="translate(89.51 534.07) rotate(-84.87)"/>
          <rect class="cls-22" x="240.63" y="173.38" width="16.05" height="189.05" transform="translate(-40.42 491.6) rotate(-84.87)"/>
          <polygon class="cls-22" points="366.34 163.88 364.35 186.08 263.66 100.93 149.41 166.77 151.4 144.57 265.65 78.73 366.34 163.88"/>
          <path d="M246.8,245l-53.52-4.81,7.12-79.28,53.52,4.81Zm-52.3-5.83,51.28,4.61,6.92-77-51.28-4.61Zm44.14-3.94-35.59-3.2,5.51-61.35,35.6,3.2ZM204.27,231l33.36,3,5.31-59.12-33.36-3Z"/>
          <rect class="cls-22" x="216.44" y="209.08" width="8.03" height="57.96" transform="translate(-36.38 436.33) rotate(-84.87)"/>
          <rect class="cls-22" x="220.59" y="170.46" width="7.13" height="52.61" transform="translate(8.13 402.42) rotate(-84.87)"/>
          <path class="cls-22" d="M284.38,225.75a2,2,0,0,1-.8-.23A2.14,2.14,0,0,1,283,225a1.9,1.9,0,0,1-.39-.71,2.09,2.09,0,0,1-.1-.83l0-.35V223l.25-2.73a1.91,1.91,0,0,1,.24-.8,2.12,2.12,0,0,1,.51-.64,2.34,2.34,0,0,1,.71-.39,1.94,1.94,0,0,1,.83-.09l.91.08a2.1,2.1,0,0,1,.76.22,2,2,0,0,1,.57.46,2.19,2.19,0,0,1,.5,1.43l-1.34-.12a1.09,1.09,0,0,0-.16-.5.58.58,0,0,0-.45-.23l-.9-.08a.72.72,0,0,0-.61.22,1,1,0,0,0-.28.63l-.07.78a2.3,2.3,0,0,1,.82-.09l.83.08a1.82,1.82,0,0,1,.8.24,2,2,0,0,1,.63.51,2.28,2.28,0,0,1,.39.72,2.16,2.16,0,0,1,.1.84l0,.34a2,2,0,0,1-.25.8,2.11,2.11,0,0,1-.51.63,2.07,2.07,0,0,1-.71.4,1.92,1.92,0,0,1-.83.09Zm-.61-2.21a1,1,0,0,0,.18.65.72.72,0,0,0,.55.31l.81.07a.71.71,0,0,0,.61-.22,1,1,0,0,0,.28-.63l0-.21a1,1,0,0,0-.16-.67.75.75,0,0,0-.57-.32l-.81-.07a.73.73,0,0,0-.61.21,1,1,0,0,0-.28.63Z"/>
          <path class="cls-22" d="M288.82,184.67a25.41,25.41,0,0,0-27.59,23l-6.18,68.83,7.1.64.64-7.11.08-.89,5.46-60.84a18.28,18.28,0,1,1,36.42,3.28l-5.47,60.84-.08.88-.63,7.11,7.1.64,6.18-68.84A25.4,25.4,0,0,0,288.82,184.67Z"/>
        </g>
        <g>
          <g>
            <rect id="_Clipping_Path_4" data-name="&lt;Clipping Path&gt;" class="cls-1" x="133.32" y="-25.44" width="250.83" height="415.06" transform="translate(54.23 423.5) rotate(-84.87)"/>
            <g class="cls-24">
              <g class="cls-25">
                <rect class="cls-26" x="61.9" y="-14.75" width="393.68" height="393.68" transform="translate(54.23 423.5) rotate(-84.87)"/>
                <line class="cls-26" x1="48.28" y1="324.89" x2="440.39" y2="360.11"/>
                <line class="cls-26" x1="51.48" y1="289.24" x2="443.59" y2="324.46"/>
                <line class="cls-26" x1="54.68" y1="253.59" x2="446.79" y2="288.81"/>
                <line class="cls-26" x1="57.89" y1="217.95" x2="449.99" y2="253.17"/>
                <line class="cls-26" x1="61.09" y1="182.3" x2="453.19" y2="217.52"/>
                <line class="cls-26" x1="64.29" y1="146.66" x2="456.4" y2="181.88"/>
                <line class="cls-26" x1="67.49" y1="111.01" x2="459.6" y2="146.23"/>
                <line class="cls-26" x1="70.69" y1="75.36" x2="462.8" y2="110.58"/>
                <line class="cls-26" x1="73.9" y1="39.72" x2="466" y2="74.94"/>
                <line class="cls-26" x1="77.1" y1="4.07" x2="469.2" y2="39.29"/>
                <line class="cls-26" x1="436.76" y1="0.44" x2="401.54" y2="392.55"/>
                <line class="cls-26" x1="401.11" y1="-2.76" x2="365.89" y2="389.35"/>
                <line class="cls-26" x1="365.47" y1="-5.96" x2="330.25" y2="386.15"/>
                <line class="cls-26" x1="329.82" y1="-9.16" x2="294.6" y2="382.94"/>
                <line class="cls-26" x1="294.18" y1="-12.36" x2="258.95" y2="379.74"/>
                <line class="cls-26" x1="258.53" y1="-15.57" x2="223.31" y2="376.54"/>
                <line class="cls-26" x1="222.88" y1="-18.77" x2="187.66" y2="373.34"/>
                <line class="cls-26" x1="187.24" y1="-21.97" x2="152.02" y2="370.14"/>
                <line class="cls-26" x1="151.59" y1="-25.17" x2="116.37" y2="366.94"/>
                <line class="cls-26" x1="115.95" y1="-28.37" x2="80.72" y2="363.73"/>
              </g>
            </g>
          </g>
          <path class="cls-23" d="M73.34,316.2,15.09,311C36.93,207,48.43,108.2,41.35,18.57L99.61,23.8C81.67,110.6,74.59,210,73.34,316.2Z"/>
          <path class="cls-9" d="M67.74,315.7,9.48,310.47c21.85-104,33.35-202.77,26.27-292.4L94,23.3C76.07,110.1,69,209.51,67.74,315.7Z"/>
          <path class="cls-27" d="M475.53,352.33l-58.26-5.23c21.85-104,33.35-202.77,26.27-292.4l58.25,5.23C483.86,146.73,476.78,246.14,475.53,352.33Z"/>
          <path class="cls-9" d="M482.25,352.93,424,347.7c21.84-103.94,33.34-202.77,26.26-292.4l58.26,5.23C490.59,147.33,483.5,246.74,482.25,352.93Z"/>
          <g>
            <polygon class="cls-26" points="342.09 279.36 153.79 262.44 164.33 145.21 264.85 82.61 352.62 162.12 342.09 279.36"/>
            <rect class="cls-26" x="105.22" y="187.01" width="131.09" height="22.29" transform="translate(-41.88 350.51) rotate(-84.87)"/>
            <rect class="cls-26" x="271.31" y="201.93" width="131.09" height="22.29" transform="translate(94.49 529.51) rotate(-84.87)"/>
            <rect class="cls-26" x="240.63" y="168.38" width="16.05" height="189.05" transform="translate(-35.44 487.05) rotate(-84.87)"/>
            <polygon class="cls-26" points="366.34 158.88 364.35 181.08 263.66 95.93 149.41 161.77 151.4 139.57 265.65 73.73 366.34 158.88"/>
            <path class="cls-28" d="M246.8,240l-53.52-4.81,7.12-79.28,53.52,4.81Zm-52.3-5.83,51.28,4.61,6.92-77-51.28-4.61Zm44.14-3.94-35.59-3.2,5.51-61.35,35.6,3.2ZM204.27,226l33.36,3,5.31-59.12-33.36-3Z"/>
            <rect class="cls-26" x="216.44" y="204.08" width="8.03" height="57.96" transform="translate(-31.4 431.78) rotate(-84.87)"/>
            <rect class="cls-26" x="220.59" y="165.46" width="7.13" height="52.61" transform="translate(13.11 397.87) rotate(-84.87)"/>
            <path class="cls-26" d="M284.38,220.75a2,2,0,0,1-.8-.23A2.14,2.14,0,0,1,283,220a1.9,1.9,0,0,1-.39-.71,2.09,2.09,0,0,1-.1-.83l0-.35V218l.25-2.73a1.91,1.91,0,0,1,.24-.8,2.12,2.12,0,0,1,.51-.64,2.34,2.34,0,0,1,.71-.39,1.94,1.94,0,0,1,.83-.09l.91.08a2.1,2.1,0,0,1,.76.22,2,2,0,0,1,.57.46,2.19,2.19,0,0,1,.5,1.43l-1.34-.12a1.09,1.09,0,0,0-.16-.5.58.58,0,0,0-.45-.23l-.9-.08a.72.72,0,0,0-.61.22,1,1,0,0,0-.28.63l-.07.78a2.3,2.3,0,0,1,.82-.09l.83.08a1.82,1.82,0,0,1,.8.24,2,2,0,0,1,.63.51,2.28,2.28,0,0,1,.39.72,2.16,2.16,0,0,1,.1.84l0,.34a2,2,0,0,1-.25.8,2.11,2.11,0,0,1-.51.63,2.07,2.07,0,0,1-.71.4,1.92,1.92,0,0,1-.83.09Zm-.61-2.21a1,1,0,0,0,.18.65.72.72,0,0,0,.55.31l.81.07a.71.71,0,0,0,.61-.22,1,1,0,0,0,.28-.63l0-.21a1,1,0,0,0-.16-.67.75.75,0,0,0-.57-.32l-.81-.07a.73.73,0,0,0-.61.21,1,1,0,0,0-.28.63Z"/>
            <path class="cls-26" d="M288.82,179.67a25.41,25.41,0,0,0-27.59,23l-6.18,68.83,7.1.64.64-7.11.08-.89,5.46-60.84a18.28,18.28,0,1,1,36.42,3.28l-5.47,60.84-.08.88-.63,7.11,7.1.64,6.18-68.84A25.4,25.4,0,0,0,288.82,179.67Z"/>
          </g>
        </g>
      </g>
      <g>
        <g>
          <path class="cls-3" d="M1528.5,294.82a24.56,24.56,0,0,1-21,27.52c-11.71,1.66-24.71-7.34-27.52-21-2.71-13.25,7.64-25.73,21-27.52A24.5,24.5,0,0,1,1528.5,294.82Z"/>
          <path class="cls-3" d="M1554.5,273.82a24.56,24.56,0,0,1-21,27.52c-11.71,1.66-24.71-7.34-27.52-21-2.71-13.25,7.64-25.73,21-27.52A24.5,24.5,0,0,1,1554.5,273.82Z"/>
          <g>
            <circle class="cls-3" cx="1615.81" cy="270.55" r="24.5"/>
            <circle class="cls-3" cx="1640.76" cy="251.49" r="24.5"/>
            <circle class="cls-3" cx="1655.81" cy="270.45" r="24.5"/>
          </g>
          <g>
            <circle class="cls-4" cx="1554.22" cy="282.06" r="24.5"/>
            <circle class="cls-4" cx="1576.49" cy="259.92" r="24.5"/>
            <circle class="cls-4" cx="1593.87" cy="276.78" r="24.5"/>
          </g>
        </g>
        <g>
          <path class="cls-3" d="M2030.3,293.82a24.57,24.57,0,0,0,21,27.52c11.72,1.66,24.72-7.34,27.53-21,2.71-13.25-7.64-25.73-21.05-27.52A24.51,24.51,0,0,0,2030.3,293.82Z"/>
          <path class="cls-3" d="M2003.3,270.82a24.57,24.57,0,0,0,21,27.52c11.72,1.66,24.72-7.34,27.53-21,2.71-13.25-7.64-25.73-21.05-27.52A24.51,24.51,0,0,0,2003.3,270.82Z"/>
          <g>
            <circle class="cls-3" cx="1942" cy="267.55" r="24.5"/>
            <circle class="cls-3" cx="1917.04" cy="248.49" r="24.5"/>
            <circle class="cls-3" cx="1902" cy="267.45" r="27.26"/>
          </g>
          <g>
            <circle class="cls-4" cx="2003.59" cy="279.06" r="24.5"/>
            <circle class="cls-4" cx="1981.32" cy="256.92" r="24.5"/>
            <circle class="cls-4" cx="1963.94" cy="273.78" r="24.5"/>
          </g>
        </g>
        <ellipse id="_Ellipse_" data-name="&lt;Ellipse&gt;" class="cls-5" cx="1778.24" cy="310.5" rx="293.5" ry="37.5"/>
        <g>
          <polygon class="cls-6" points="1876.84 301.15 1673.52 301.15 1673.52 91.11 1775.18 14.39 1876.84 91.11 1876.84 301.15"/>
          <rect class="cls-8" x="1673.51" y="72.89" width="23.98" height="228.26"/>
          <rect class="cls-8" x="1853.34" y="72.89" width="23.98" height="226.34"/>
          <rect class="cls-9" x="1673.51" y="283.88" width="203.32" height="17.26"/>
          <polygon class="cls-10" points="1891.7 81.52 1891.7 105.5 1775.65 23.98 1659.61 105.5 1659.61 81.52 1775.65 0 1891.7 81.52"/>
          <path class="cls-11" d="M1785.73,301.15V226.82a23.5,23.5,0,1,1,47,0v74.33Z"/>
          <path class="cls-12" d="M1790.52,226.82c0-11.39,8.59-20.62,19.18-20.62h0c10.6,0,19.18,9.23,19.18,20.62"/>
          <g>
            <g>
              <rect class="cls-12" x="1717.8" y="187.18" width="48.58" height="76.4"/>
              <path class="cls-13" d="M1762.38,191.18v68.4H1721.8v-68.4h40.58m8-8H1713.8v84.4h56.58v-84.4Z"/>
            </g>
            <rect class="cls-14" x="1710.92" y="258.95" width="62.34" height="8.63"/>
            <rect class="cls-13" x="1713.8" y="214.83" width="56.58" height="7.67"/>
          </g>
          <g>
            <g>
              <rect class="cls-12" x="1788.81" y="92.23" width="42.16" height="66.81"/>
              <path class="cls-13" d="M1827,96.23V155h-34.15V96.23H1827m8-8h-50.15V163H1835V88.23Z"/>
            </g>
            <rect class="cls-14" x="1782.26" y="155.39" width="55.26" height="7.65"/>
            <rect class="cls-13" x="1784.81" y="116.29" width="50.15" height="6.8"/>
          </g>
          <g>
            <g>
              <rect class="cls-12" x="1717.65" y="92.23" width="42.15" height="66.81"/>
              <path class="cls-13" d="M1755.81,96.23V155h-34.16V96.23h34.16m8-8h-50.16V163h50.16V88.23Z"/>
            </g>
            <rect class="cls-14" x="1711.1" y="155.39" width="55.26" height="7.65"/>
            <rect class="cls-13" x="1713.65" y="116.29" width="50.15" height="6.8"/>
          </g>
          <path class="cls-15" d="M1809.35,244a2.2,2.2,0,0,1-.88-.18,2.14,2.14,0,0,1-.72-.49,2.36,2.36,0,0,1-.49-.72,2.25,2.25,0,0,1-.18-.89v-3.41a2.23,2.23,0,0,1,.18-.88,2.29,2.29,0,0,1,.49-.73,2.14,2.14,0,0,1,.72-.49,2.2,2.2,0,0,1,.88-.18h1a2.05,2.05,0,0,1,.83.17,1.91,1.91,0,0,1,.67.44,2.29,2.29,0,0,1,.45.65,2.48,2.48,0,0,1,.22.83h-1.45a1.17,1.17,0,0,0-.22-.52.61.61,0,0,0-.51-.21h-1a.77.77,0,0,0-.64.3,1.06,1.06,0,0,0-.24.7v.84a2.4,2.4,0,0,1,.87-.17h.89a2.21,2.21,0,0,1,.89.18,2.14,2.14,0,0,1,.72.49,2.67,2.67,0,0,1,.49.73,2.25,2.25,0,0,1,.18.89v.37a2.25,2.25,0,0,1-.18.89,2.78,2.78,0,0,1-.49.72,2.14,2.14,0,0,1-.72.49,2.21,2.21,0,0,1-.89.18Zm-.87-2.32a1.11,1.11,0,0,0,.26.68.76.76,0,0,0,.62.28h.87a.79.79,0,0,0,.64-.29,1.11,1.11,0,0,0,.24-.71v-.22a1,1,0,0,0-.24-.7.79.79,0,0,0-.64-.29h-.87a.79.79,0,0,0-.64.28,1,1,0,0,0-.24.7Z"/>
          <path class="cls-16" d="M1810.18,199.49a27.33,27.33,0,0,0-27.33,27.33v74.33h7.67V226.82a19.66,19.66,0,1,1,39.32,0v74.33h7.67V226.82A27.32,27.32,0,0,0,1810.18,199.49Z"/>
        </g>
        <rect class="cls-17" x="1612.74" y="232" width="11" height="70"/>
        <rect class="cls-17" x="1605.29" y="263.06" width="13" height="5.79" rx="2.9" ry="2.9" transform="translate(660.14 -1061.81) rotate(45)"/>
        <rect class="cls-17" x="1613.4" y="239.36" width="31.48" height="5.79" rx="2.9" ry="2.9" transform="translate(2820.79 -894.74) rotate(127.89)"/>
        <path class="cls-4" d="M1911.74,287.5c-10,.24-2.77,0-5,.07v-1.18l0-1.16,0-2.31.1-4.63.2-9.26.47-18.52q.26-9.25.59-18.52l.39-9.25c.17-3.08.3-6.17.67-9.24-.16,3.08-.08,6.17,0,9.25l.23,9.25q.27,9.24.66,18.49l.78,18.5.42,9.24.22,4.62.11,2.31.06,1.15,0,.58v.53h0c-2.22,0,5-.13-5,.09a2.5,2.5,0,1,1,5,0Z"/>
        <circle class="cls-5" cx="1617.74" cy="201" r="38"/>
        <circle class="cls-5" cx="1617.74" cy="163" r="29.7"/>
        <ellipse class="cls-17" cx="1909.74" cy="285" rx="9" ry="3"/>
        <polygon class="cls-18" points="1916.63 300.83 1902.85 300.83 1901.07 286.17 1918.4 286.17 1916.63 300.83"/>
        <rect class="cls-19" x="1899.74" y="285.5" width="20" height="4.67"/>
        <rect class="cls-18" x="1899.74" y="284.17" width="20" height="4.67"/>
        <path class="cls-4" d="M1911.73,274a1.7,1.7,0,1,1,1.53-2.45A3,3,0,0,1,1911.73,274Z"/>
        <path class="cls-4" d="M1902.71,236.43c2,.69,2.17,2,2.54,3.93-1.47,1.2-2.27,2-4.2,1.4s-4.64-2.81-5-4.77C1897.51,235.79,1900.78,235.78,1902.71,236.43Z"/>
        <g>
          <path class="cls-29" d="M1913,204.17c.84-2.62,1.27-6.56.49-8-1.45.68-3.41,4.13-4.25,6.75s-.33,3.67.44,5.06C1911.17,207.34,1912.2,206.79,1913,204.17Z"/>
          <path class="cls-29" d="M1915.5,208.2c2.33-1.46,5.19-4.22,5.49-5.78-1.54-.41-5.26,1-7.59,2.43s-2.61,2.6-2.91,4.17C1912,209.43,1913.18,209.66,1915.5,208.2Z"/>
          <path class="cls-29" d="M1914.8,212.87c2.72.38,6.68.1,7.92-.9-.92-1.31-4.66-2.64-7.38-3s-3.67.31-4.91,1.32C1911.35,211.58,1912.08,212.49,1914.8,212.87Z"/>
          <path class="cls-29" d="M1911.26,216c1.84,2,5,4.38,6.65,4.41.13-1.6-1.87-5-3.72-7.06s-3-2.12-4.61-2.14C1909.45,212.79,1909.41,214,1911.26,216Z"/>
          <path class="cls-29" d="M1906.54,216.11c.1,2.75,1.06,6.6,2.26,7.65,1.13-1.13,1.79-5,1.69-7.8s-.94-3.56-2.15-4.6C1907.21,212.49,1906.44,213.36,1906.54,216.11Z"/>
          <path class="cls-29" d="M1902.85,213.17c-1.69,2.17-3.44,5.73-3.18,7.31,1.59-.14,4.61-2.72,6.3-4.89s1.56-3.33,1.31-4.91C1905.69,210.83,1904.53,211,1902.85,213.17Z"/>
          <path class="cls-29" d="M1901.91,208.54c-2.69.58-6.32,2.19-7.14,3.56,1.31.91,5.28.88,8,.3s3.35-1.54,4.16-2.91C1905.59,208.57,1904.6,208,1901.91,208.54Z"/>
          <path class="cls-29" d="M1904.17,204.39c-2.43-1.28-6.25-2.38-7.75-1.86.41,1.54,3.47,4.07,5.9,5.36s3.56,1,5.07.44C1907,206.79,1906.6,205.68,1904.17,204.39Z"/>
          <path class="cls-29" d="M1908.57,202.67c-1-2.55-3.26-5.85-4.75-6.41-.67,1.44,0,5.35,1.08,7.9s2.11,3,3.6,3.59C1909.17,206.3,1909.6,205.21,1908.57,202.67Z"/>
          <path class="cls-29" d="M1913,204.17c.84-2.62,1.27-6.56.49-8-1.45.68-3.41,4.13-4.25,6.75s-.33,3.67.44,5.06C1911.17,207.34,1912.2,206.79,1913,204.17Z"/>
          <path class="cls-17" d="M1911.78,202.72c0-2.74-1.25-6.63-3-7.72-1.8,1.09-3,5-3,7.72s1.24,3.6,3,4.69C1910.53,206.32,1911.78,205.47,1911.78,202.72Z"/>
          <path class="cls-30" d="M1906.67,202.37c-1.77-2.11-5.22-4.28-7.3-4-.67,2,.87,5.76,2.64,7.87s3.26,1.95,5.34,1.63C1908,205.92,1908.44,204.48,1906.67,202.37Z"/>
          <path class="cls-30" d="M1902.53,205.38c-2.71-.47-6.75.08-8.14,1.66.76,2,4.37,3.86,7.08,4.33s3.76-.6,5.14-2.18C1905.85,207.23,1905.23,205.86,1902.53,205.38Z"/>
          <path class="cls-30" d="M1901.29,210.36c-2.38,1.37-5.12,4.39-5.17,6.49,1.84,1,5.83.15,8.21-1.23s2.49-2.87,2.54-5C1905,209.64,1903.67,209,1901.29,210.36Z"/>
          <path class="cls-30" d="M1903.54,215c-.94,2.58-1.1,6.66.21,8.3,2.07-.41,4.56-3.64,5.5-6.22s.06-3.81-1.25-5.44C1905.94,212,1904.48,212.37,1903.54,215Z"/>
          <path class="cls-30" d="M1908.22,217c.94,2.58,3.44,5.81,5.5,6.22,1.32-1.64,1.16-5.72.22-8.3s-2.4-3-4.46-3.36C1908.16,213.23,1907.28,214.45,1908.22,217Z"/>
          <path class="cls-30" d="M1913.14,215.62c2.38,1.38,6.37,2.24,8.21,1.23,0-2.1-2.79-5.12-5.17-6.49s-3.73-.72-5.57.29C1910.65,212.75,1910.76,214.25,1913.14,215.62Z"/>
          <path class="cls-30" d="M1916,211.37c2.71-.47,6.32-2.37,7.08-4.33-1.38-1.58-5.42-2.13-8.13-1.66s-3.33,1.85-4.09,3.81C1912.25,210.77,1913.3,211.85,1916,211.37Z"/>
          <path class="cls-18" d="M1911.78,202.72c0-2.74-1.25-6.63-3-7.72-1.8,1.09-3,5-3,7.72s1.24,3.6,3,4.69C1910.53,206.32,1911.78,205.47,1911.78,202.72Z"/>
          <path class="cls-18" d="M1911.78,202.72c0-2.74-1.25-6.63-3-7.72-1.8,1.09-3,5-3,7.72s1.24,3.6,3,4.69C1910.53,206.32,1911.78,205.47,1911.78,202.72Z"/>
          <path class="cls-30" d="M1915.47,206.28c1.76-2.11,3.31-5.88,2.63-7.87-2.08-.32-5.53,1.85-7.29,4s-1.36,3.55-.68,5.54C1912.2,208.23,1913.7,208.39,1915.47,206.28Z"/>
          <path class="cls-30" d="M1911.78,202.72c0-2.74-1.25-6.63-3-7.72-1.8,1.09-3,5-3,7.72s1.24,3.6,3,4.69C1910.53,206.32,1911.78,205.47,1911.78,202.72Z"/>
          <g>
            <polygon class="cls-17" points="1913.48 209.57 1913.66 210.28 1913.36 210.93 1913.22 211.62 1912.86 212.22 1912.54 212.87 1911.89 213.21 1911.29 213.54 1910.68 213.83 1910.13 214.3 1909.42 214.29 1908.74 214.34 1908.02 214.54 1907.31 214.41 1906.67 214.1 1906.16 213.58 1905.64 213.14 1905.12 212.7 1904.6 212.22 1904.14 211.66 1903.92 210.98 1903.87 210.27 1903.9 209.57 1904.03 208.89 1903.92 208.15 1904.31 207.54 1904.74 207 1905.18 206.48 1905.59 205.93 1906.03 205.36 1906.65 205 1907.34 204.81 1908.02 204.59 1908.74 204.53 1909.44 204.66 1910.09 204.95 1910.81 205.03 1911.37 205.48 1911.91 205.91 1912.31 206.47 1912.84 206.93 1913.06 207.59 1913.56 208.15 1913.54 208.88 1913.48 209.57"/>
            <polygon class="cls-31" points="1913.48 209.57 1913.66 210.28 1913.36 210.93 1913.22 211.62 1912.86 212.22 1912.54 212.87 1911.89 213.21 1911.29 213.54 1910.68 213.83 1910.13 214.3 1909.42 214.29 1908.74 214.34 1908.02 214.54 1907.31 214.41 1906.67 214.1 1906.16 213.58 1905.64 213.14 1905.12 212.7 1904.6 212.22 1904.14 211.66 1903.92 210.98 1903.87 210.27 1903.9 209.57 1904.03 208.89 1903.92 208.15 1904.31 207.54 1904.74 207 1905.18 206.48 1905.59 205.93 1906.03 205.36 1906.65 205 1907.34 204.81 1908.02 204.59 1908.74 204.53 1909.44 204.66 1910.09 204.95 1910.81 205.03 1911.37 205.48 1911.91 205.91 1912.31 206.47 1912.84 206.93 1913.06 207.59 1913.56 208.15 1913.54 208.88 1913.48 209.57"/>
          </g>
        </g>
        <path class="cls-4" d="M1904.46,239.37a3.06,3.06,0,0,0,.89.42,2.69,2.69,0,0,0,1,.11,2.07,2.07,0,0,0,1-.37,3.32,3.32,0,0,0,.81-.82,3.71,3.71,0,0,1-.59,1.06,2.49,2.49,0,0,1-1,.76,3.28,3.28,0,0,1-1.32.23,4.18,4.18,0,0,1-1.36-.23Z"/>
      </g>
      <g>
        <path class="cls-32" d="M1299,162s92.17-102.91,190.16,1.14"/>
        <path class="cls-15" d="M1506,183.05c-11.43-6.36-27.23-12.87-39.62-14.69l20.44-7.71,10.77-19C1497.47,154.16,1501.47,170.77,1506,183.05Z"/>
      </g>
      <g>
        <path class="cls-32" d="M540,162s92.17-102.91,190.16,1.14"/>
        <path class="cls-15" d="M747,183.05c-11.43-6.36-27.23-12.87-39.62-14.69l20.44-7.71,10.77-19C738.47,154.16,742.47,170.77,747,183.05Z"/>
      </g>
    </g>
  </g>
</svg>
